<svg xmlns="http://www.w3.org/2000/svg" viewBox="0 0 512 512">
  <rect width="512" height="512" rx="112" fill="url(#bg)" />
  <defs>
    <linearGradient id="bg" x1="0%" y1="0%" x2="100%" y2="100%">
      <stop offset="0%" stop-color="#f472b6" />
      <stop offset="100%" stop-color="#e11d48" />
    </linearGradient>
  </defs>
  <g transform="translate(106, 126) scale(3)">
    <path d="M50 85 C 45 75, 45 65, 50 55 C 55 65, 55 75, 50 85 Z" fill="white" fill-opacity="0.3"/>
    <path d="M50 55 C 20 45, 30 15, 50 20 C 70 15, 80 45, 50 55 Z" fill="white" fill-opacity="0.8"/>
    <path d="M35 25 C 20 20, 15 35, 20 45" fill="none" stroke="white" stroke-width="4" stroke-linecap="round"/>
    <path d="M65 25 C 80 20, 85 35, 80 45" fill="none" stroke="white" stroke-width="4" stroke-linecap="round"/>
    <circle cx="20" cy="45" r="7" fill="white" />
    <circle cx="80" cy="45" r="7" fill="white" />
  </g>
</svg>
